<?xml version="1.0" encoding="UTF-8"?>
<svg id="Layer_1" xmlns="http://www.w3.org/2000/svg" viewBox="0 0 217.44 73.08">
  <defs>
    <style>
      .cls-1 {
        fill: #fff;
      }
    </style>
  </defs>
  <path class="cls-1" d="M10.38,72.79c-1.75,0-3.36-.36-4.79-1.08-1.44-.72-2.62-1.73-3.49-2.99-.89-1.29-1.35-2.77-1.35-4.39s.42-3.21,1.26-4.56c.83-1.34,2.01-2.41,3.5-3.18,1.47-.76,3.21-1.14,5.17-1.14s3.72.25,5.45.73c.61.17,1.23.37,1.84.59.07-.21,9.41-28.67,9.41-28.67-2.86-.62-5.15-1.19-6.67-1.67-4.49-1.41-6.8-3.67-6.87-6.72v-.23c-.03-.55-.06-1.24.31-2.01,1.02-2.09,2.26-4.02,3.68-5.72,1.42-1.71,3.07-3.25,4.9-4.57,1.82-1.31,3.86-2.43,6.06-3.33,2.19-.89,4.62-1.57,7.23-2.03,2.59-.45,5.43-.68,8.43-.68,4.57,0,8.82.66,12.65,1.96,3.85,1.31,7.21,3.26,9.99,5.78,2.79,2.54,4.97,5.68,6.48,9.36,1.5,3.66,2.26,7.89,2.26,12.56,0,3.7-.45,7.33-1.32,10.79-.88,3.45-2.13,6.76-3.72,9.82-1.59,3.07-3.51,5.91-5.71,8.44-2.2,2.53-4.63,4.76-7.23,6.61-2.61,1.87-5.41,3.33-8.32,4.34-2.93,1.02-5.96,1.54-9.02,1.54-2.59,0-5.1-.36-7.44-1.07-2.3-.7-4.52-1.56-6.61-2.57-1.69-.81-3.32-1.65-4.87-2.48,0,0,0,0,0,0-1.4,2.28-3.03,3.96-4.86,4.98-1.83,1.03-3.96,1.55-6.34,1.55ZM11.06,62.31c-.93,0-1.6.19-2,.56-.39.36-.57.77-.57,1.29,0,.56.18.93.58,1.21.51.35,1.18.52,1.99.52,1.06,0,1.94-.26,2.67-.81.56-.41,1.09-1.04,1.6-1.88-1.52-.59-2.95-.89-4.27-.89ZM25.91,60.51c1.56.82,3.17,1.6,4.79,2.34,1.58.72,3.24,1.31,4.93,1.76,1.65.44,3.44.66,5.32.66,2.17,0,4.36-.41,6.52-1.21,2.18-.81,4.31-2,6.34-3.53,2.04-1.54,3.94-3.38,5.65-5.47,1.71-2.1,3.25-4.45,4.57-6.98,1.31-2.53,2.34-5.25,3.06-8.09.6-2.39.96-4.88,1.05-7.41-.91.78-2.64.79-3.33.79-6.17,0-19.67-1.91-30.22-3.85l-9.21,27.96c-.26.8-.53,1.58-.8,2.32.44.23.89.46,1.33.69ZM36.92,22.48c7.11,1.22,14.91,2.51,20.16,3.38,3.57.59,5.92.98,6.39,1.07.87.17,3.5,1.43,4.67,2.96-.12-3.18-.7-6.06-1.72-8.58-1.15-2.84-2.8-5.24-4.89-7.15-2.11-1.92-4.66-3.4-7.6-4.4-2.96-1.01-6.3-1.52-9.91-1.52-2.44,0-4.73.16-6.78.47-2.04.31-3.92.79-5.59,1.43-1.66.63-3.19,1.45-4.55,2.42-1.37.98-2.65,2.14-3.81,3.45-.91,1.03-1.77,2.19-2.55,3.45,1.17.27,3.65.78,8.91,1.73l1.96-5.97c.3-.82.8-1.42,1.5-1.83.66-.38,1.5-.56,2.59-.56,1.22,0,2.09.21,2.69.65.77.57,1.01,1.47.66,2.49l-2.14,6.49Z"/>
  <path class="cls-1" d="M80.72,72.67c-1.82,0-3.3-.33-4.42-.99-1.16-.68-1.98-1.63-2.43-2.81-.42-1.1-.59-2.33-.53-3.68.07-1.31.35-2.67.83-4.04l6.71-20.11c.31-1.03.77-1.73,1.38-2.11.55-.34,1.32-.51,2.34-.51,1.61,0,2.62.29,3.17.9.42.46.82,1.33.29,2.79l-6.65,20.04c-.87,2.52-.72,3.31-.65,3.5.11.3.53.46,1.25.46.93,0,1.69.43,2.13,1.2.38.66.51,1.4.4,2.21-.11.81-.49,1.53-1.12,2.15-.67.65-1.57.98-2.7.98ZM88.42,31.1c-1.07,0-2.01-.35-2.79-1.04-.82-.72-1.23-1.75-1.23-3.05s.44-2.55,1.31-3.7c.94-1.23,2.34-1.85,4.19-1.85,1.06,0,1.99.33,2.77.99.83.7,1.25,1.74,1.25,3.1s-.43,2.54-1.27,3.69c-.91,1.23-2.33,1.86-4.22,1.86Z"/>
  <path class="cls-1" d="M117.42,72.67c-1.78,0-3.25-.34-4.37-1.02-1.15-.7-1.97-1.65-2.42-2.83-.42-1.1-.59-2.34-.49-3.67.09-1.26.35-2.6.78-3.96l4.01-11.72c.33-1.04.49-1.96.47-2.71-.02-.77-.31-1.11-.52-1.3-.25-.22-.8-.48-2.02-.48-1.09,0-2.28.36-3.54,1.08-1.33.76-2.72,1.85-4.1,3.23-1.41,1.4-2.79,3.1-4.1,5.03-1.31,1.94-2.54,4.11-3.66,6.45l-3.12,9.52c-.23.75-.68,1.33-1.32,1.72-.6.36-1.44.54-2.58.54-.81,0-1.58-.18-2.27-.53-1-.51-1.35-1.55-.96-2.77l7.7-23.52c.18-.5.18-.76.15-.85,0,0,0,0,0,0-.03,0-.12-.02-.3-.02-.96,0-1.71-.45-2.1-1.26-.31-.64-.42-1.37-.31-2.15.11-.77.42-1.47.93-2.08.58-.69,1.41-1.05,2.4-1.05,1.43,0,2.61.24,3.52.72.94.5,1.64,1.2,2.09,2.07.41.81.65,1.71.72,2.68.02.32.03.64.03.96.33-.35.66-.68.99-1,1.21-1.17,2.47-2.18,3.72-3,1.28-.83,2.61-1.47,3.97-1.9,1.37-.43,2.75-.65,4.12-.65,2.42,0,4.31.6,5.63,1.77,1.32,1.18,2.08,2.84,2.27,4.93.17,1.97-.19,4.32-1.1,6.99l-3.45,10.3c-.85,2.41-.75,3.25-.67,3.5.1.3.52.46,1.27.46.94,0,1.69.44,2.12,1.23.35.65.46,1.39.35,2.18-.11.81-.49,1.53-1.12,2.15-.67.65-1.57.98-2.7.98Z"/>
  <path class="cls-1" d="M138.35,73.08c-1.6,0-3.09-.27-4.43-.8-1.33-.52-2.54-1.25-3.61-2.17-1.07-.92-1.98-2.02-2.73-3.28-1.12-1.87-1.3-2.57-1.7-4.09-.4-1.54-.6-3.13-.6-4.79s.18-3.29.54-5.02c.36-1.75.95-3.48,1.74-5.16.8-1.69,1.81-3.25,3.02-4.63,1.23-1.41,2.71-2.54,4.38-3.36,1.69-.83,3.65-1.25,5.8-1.25,1.68,0,3.15.34,4.39,1,1.25.67,2.23,1.62,2.89,2.82.66,1.18.99,2.55.99,4.09,0,1.84-.45,3.72-1.33,5.6-.86,1.83-2.03,3.62-3.47,5.32-1.43,1.67-3.05,3.25-4.81,4.7-1.08,1.03-2.31,2.05-3.61,3,.29.22.6.41.92.57.79.4,1.66.59,2.66.59s1.94-.2,2.88-.59c.99-.41,1.97-.98,2.93-1.7.99-.74,1.94-1.53,2.81-2.35,3.15-3.14,3.18-3.14,3.7-3.14l.9.55c.3.59.01.98-.56,1.75-.07.1-.17.23-.28.38.31.18.6.41.86.69.15.15.24.3.28.48,2.06-2.38,2.18-2.38,2.66-2.38l.93.61c.51,1.18-3.65,5.76-3.7,5.8-1.48,1.62-3.04,2.95-4.61,3.92-1.58.98-3.21,1.7-4.85,2.15-1.64.45-3.33.67-5.01.67ZM139.58,45.39c-1.02,0-1.91.36-2.71,1.1-.89.82-1.64,1.87-2.24,3.12-.62,1.3-1.11,2.7-1.44,4.15-.33,1.46-.5,2.81-.5,4.02,0,.5.03.98.08,1.45.73-.58,1.41-1.18,2.04-1.79,1.29-1.1,2.44-2.23,3.47-3.38,1.01-1.12,1.81-2.26,2.38-3.39.54-1.07.82-2.08.82-3,0-.8-.16-1.4-.48-1.78-.1-.12-.41-.49-1.42-.49Z"/>
  <path class="cls-1" d="M163.87,72.79c-2.17,0-4.12-.34-5.79-1.01-1.71-.68-2.95-1.45-3.8-2.33-.68-.67-1.02-1.4-.99-2.14.03-.7.39-1.4,1.1-2.15.72-.71,1.39-1.04,2.08-1.04.63,0,1.3.26,2.05.79.58.39,1.35.79,2.27,1.17.86.35,1.83.53,2.89.53,1.9,0,3.31-.44,4.2-1.32.9-.88,1.33-2.11,1.33-3.74,0-.89-.16-1.83-.47-2.78-.33-.99-.78-2.02-1.32-3.06-.57-1.08-1.16-2.18-1.78-3.28-.49-.89-.97-1.78-1.44-2.67-1.52,2.53-2.97,4.83-4.31,6.85-2.52,3.81-4.89,6.91-7.03,9.22-2.18,2.36-4.34,4.1-6.4,5.18-2.11,1.1-4.34,1.66-6.62,1.66-1.46,0-2.13-.67-2.42-1.23-.36-.68-.45-1.45-.24-2.28.19-.78.61-1.47,1.24-2.07.68-.64,1.56-.97,2.6-.97s2.28-.41,3.57-1.21c1.37-.85,2.94-2.29,4.68-4.27,1.78-2.03,3.86-4.76,6.18-8.12,1.88-2.71,4.04-5.98,6.41-9.71-.02-.26-.03-.52-.03-.78,0-2.55.48-4.42,1.47-5.73,1.04-1.37,2.45-2.06,4.22-2.06,1.23,0,2.21.39,2.9,1.15.66.73,1,1.6,1,2.58,0,.91-.31,1.88-.92,2.88-.45.74-1.04,1.57-1.76,2.48-.14.17-.2.4-.17.62.07.52.22,1.05.45,1.59.37.85.85,1.74,1.43,2.64.61.95,1.26,1.92,1.93,2.93.68,1.02,1.35,2.09,1.98,3.18.64,1.12,1.18,2.29,1.59,3.48.42,1.23.64,2.55.64,3.9,0,1.64-.28,3.14-.82,4.46.76.07,1.31.61,1.5,1.47.14.61.11,1.3-.07,2.03-.18.72-.48,1.37-.91,1.94-.68.91-1.5,1.1-2.06,1.1-.83,0-1.72-.08-2.65-.22-.84-.14-1.77-.23-2.77-.29h-.11c-1.44.42-3.07.64-4.82.64Z"/>
  <path class="cls-1" d="M207.82,72.61c-1.93,0-3.36-.39-4.38-1.18-1.01-.79-1.66-1.84-1.93-3.12-.25-1.17-.27-2.44-.04-3.77.21-1.26.54-2.52.97-3.74l3.88-11.33c.33-1.04.49-1.96.47-2.71-.02-.77-.31-1.11-.52-1.3-.25-.22-.8-.48-2.02-.48-1.13,0-2.37.38-3.69,1.14-1.39.8-2.81,1.93-4.22,3.38-1.43,1.47-2.84,3.23-4.2,5.25-.77,1.15-1.51,2.38-2.2,3.67-.17.33-.42.59-.72.78l-3.67,11.1c-.23.74-.66,1.32-1.27,1.71-.58.37-1.42.55-2.57.55-.81,0-1.58-.18-2.29-.53-1.03-.51-1.4-1.54-1-2.78l18.61-56.37c1.36-4.09,2.99-7.12,4.86-9,1.95-1.97,4.33-2.96,7.06-2.96,1.62,0,3.03.37,4.17,1.1,1.14.73,2.04,1.75,2.67,3.04.62,1.27.93,2.78.93,4.5,0,1.41-.23,3.02-.68,4.79-.44,1.74-1.08,3.59-1.9,5.51-.81,1.89-1.77,3.88-2.88,5.9-1.1,2.02-2.36,4.09-3.75,6.14-1.39,2.06-2.91,4.12-4.52,6.13-.2.25-.41.51-.61.76,1.27-.4,2.55-.6,3.84-.6,2.42,0,4.31.6,5.63,1.77,1.32,1.18,2.08,2.84,2.27,4.93.17,1.97-.19,4.32-1.1,6.99l-4.19,12.3c-.18.53-.29,1-.32,1.4-.02.25,0,.37.02.43,0,0,.09,0,.15,0,.35,0,.68-.09,1-.28.4-.24.79-.56,1.18-.96.42-.44.83-.91,1.22-1.4.41-.52.9-.88,1.46-1.06.18-.06.38-.09.58-.09.54,0,1.1.21,1.72.65.91.52,1.45,1.17,1.55,1.92.1.66-.04,1.3-.41,1.91-.38.71-.99,1.53-1.84,2.46-.85.92-1.89,1.73-3.08,2.41-1.26.71-2.69,1.07-4.25,1.07ZM208.13,7.95c-.38,0-.73.13-1.06.41-.28.23-.73.74-1.32,1.89-.51,1.01-1.1,2.43-1.74,4.24l-7.15,21.48c.02.1.07.12.11.12l.43-.56c1.33-1.8,2.61-3.69,3.81-5.6,1.19-1.91,2.31-3.84,3.32-5.73,1.01-1.88,1.88-3.73,2.61-5.48.72-1.74,1.28-3.4,1.68-4.93.39-1.49.58-2.81.58-3.93,0-.48-.06-.9-.18-1.23-.12-.31-.27-.44-.37-.5-.19-.12-.42-.18-.73-.18Z"/>
</svg>